HIERARCHY
ROOT Hips
{
	OFFSET 0.00000 0.00000 0.00000
	CHANNELS 6 Xposition Yposition Zposition Zrotation Yrotation Xrotation 
	JOINT LHipJoint
	{
		OFFSET 0 0 0
		CHANNELS 3 Zrotation Yrotation Xrotation
		JOINT LeftUpLeg
		{
			OFFSET 1.24777 -1.64261 0.71711
			CHANNELS 3 Zrotation Yrotation Xrotation
			JOINT LeftLeg
			{
				OFFSET 2.49329 -6.85026 0.00000
				CHANNELS 3 Zrotation Yrotation Xrotation
				JOINT LeftFoot
				{
					OFFSET 2.36770 -6.50520 0.00000
					CHANNELS 3 Zrotation Yrotation Xrotation
					JOINT LeftToeBase
					{
						OFFSET 0.14820 -0.40718 2.21395
						CHANNELS 3 Zrotation Yrotation Xrotation
						End Site
						{
							OFFSET 0.00000 -0.00000 1.13491
						}
					}
				}
			}
		}
	}
	JOINT RHipJoint
	{
		OFFSET 0 0 0
		CHANNELS 3 Zrotation Yrotation Xrotation
		JOINT RightUpLeg
		{
			OFFSET -1.18320 -1.64261 0.71711
			CHANNELS 3 Zrotation Yrotation Xrotation
			JOINT RightLeg
			{
				OFFSET -2.46559 -6.77417 0.00000
				CHANNELS 3 Zrotation Yrotation Xrotation
				JOINT RightFoot
				{
					OFFSET -2.38450 -6.55136 0.00000
					CHANNELS 3 Zrotation Yrotation Xrotation
					JOINT RightToeBase
					{
						OFFSET -0.17454 -0.47954 2.02925
						CHANNELS 3 Zrotation Yrotation Xrotation
						End Site
						{
							OFFSET -0.00000 -0.00000 1.05076
						}
					}
				}
			}
		}
	}
	JOINT LowerBack
	{
		OFFSET 0 0 0
		CHANNELS 3 Zrotation Yrotation Xrotation
		JOINT Spine
		{
			OFFSET -0.02305 1.98660 0.00319
			CHANNELS 3 Zrotation Yrotation Xrotation
			JOINT Spine1
			{
				OFFSET -0.00718 1.99033 -0.00533
				CHANNELS 3 Zrotation Yrotation Xrotation
				JOINT Neck
				{
					OFFSET 0 0 0
					CHANNELS 3 Zrotation Yrotation Xrotation
					JOINT Neck1
					{
						OFFSET 0.00095 1.61015 0.10698
						CHANNELS 3 Zrotation Yrotation Xrotation
						JOINT Head
						{
							OFFSET -0.01060 1.59924 0.01317
							CHANNELS 3 Zrotation Yrotation Xrotation
							End Site
							{
								OFFSET -0.00458 1.63304 -0.00592
							}
						}
					}
				}
				JOINT LeftShoulder
				{
					OFFSET 0 0 0
					CHANNELS 3 Zrotation Yrotation Xrotation
					JOINT LeftArm
					{
						OFFSET 3.05381 1.47088 -0.01697
						CHANNELS 3 Zrotation Yrotation Xrotation
						JOINT LeftForeArm
						{
							OFFSET 4.25106 -0.00000 0.00000
							CHANNELS 3 Zrotation Yrotation Xrotation
							JOINT LeftHand
							{
								OFFSET 3.27592 -0.00000 0.00000
								CHANNELS 3 Zrotation Yrotation Xrotation
								JOINT LeftFingerBase
								{
									OFFSET 0 0 0
									CHANNELS 3 Zrotation Yrotation Xrotation
									JOINT LeftHandIndex1
									{
										OFFSET 0.65781 -0.00000 0.00000
										CHANNELS 3 Zrotation Yrotation Xrotation
										End Site
										{
											OFFSET 0.53034 -0.00000 0.00000
										}
									}
								}
								JOINT LThumb
								{
									OFFSET 0 0 0
									CHANNELS 3 Zrotation Yrotation Xrotation
									End Site
									{
										OFFSET 0.53844 -0.00000 0.53844
									}
								}
							}
						}
					}
				}
				JOINT RightShoulder
				{
					OFFSET 0 0 0
					CHANNELS 3 Zrotation Yrotation Xrotation
					JOINT RightArm
					{
						OFFSET -2.83695 1.31619 -0.22674
						CHANNELS 3 Zrotation Yrotation Xrotation
						JOINT RightForeArm
						{
							OFFSET -4.46073 -0.00000 0.00000
							CHANNELS 3 Zrotation Yrotation Xrotation
							JOINT RightHand
							{
								OFFSET -3.44416 -0.00000 0.00000
								CHANNELS 3 Zrotation Yrotation Xrotation
								JOINT RightFingerBase
								{
									OFFSET 0 0 0
									CHANNELS 3 Zrotation Yrotation Xrotation
									JOINT RightHandIndex1
									{
										OFFSET -0.61651 -0.00000 0.00000
										CHANNELS 3 Zrotation Yrotation Xrotation
										End Site
										{
											OFFSET -0.49705 -0.00000 0.00000
										}
									}
								}
								JOINT RThumb
								{
									OFFSET 0 0 0
									CHANNELS 3 Zrotation Yrotation Xrotation
									End Site
									{
										OFFSET -0.50464 -0.00000 0.50464
									}
								}
							}
						}
					}
				}
			}
		}
	}
}
MOTION
Frames: 16
Frame Time: 0.0204082
0.00 0.00 0.00 0 0 0 0 0 0 -21 0 0 0 0 0 0 0 0 0 0 0 0 0 0 21 0 0 0 0 0 0 0 0 0 0 0 0 0 0 0 0 0 0 0 0 0 0 -16 0 0 21 0 0 11 0 0 0 -8 0 0 0 0 0 0 0 0 0 0 0 0 0 0 0 0 0 0 0 0 8 0 0 0 0 0 0 0 0 0 0 0 0 0 0 0 0 0
0.00 0.00 0.00 -2.6537 6.0040 9.7488 0.0000 0.0000 0.0000 -15.9889 4.1461 -35.2348 6.1446 14.5670 45.5593 0.4133 -13.3976 -13.8822 0.1721 2.6720 7.3670 0.0000 0.0000 0.0000 21.9600 5.0610 -18.6963 -2.8275 -10.4104 30.3162 -1.0771 -4.3628 -21.6343 -0.0034 0.3774 -1.0370 -0.5958 0.4011 -4.5775 2.6471 0.5228 -1.1582 3.0872 0.2606 1.3458 -3.6867 -2.6585 -9.3926 1.7004 -3.1751 -0.8735 1.0342 -1.5426 1.4115 -0.0000 -0.0000 0.0000 -90.2531 6.8502 45.2725 23.7187 -34.8653 -7.5451 -0.0000 0.0000 -6.0007 10.7888 2.4103 0.4592 -7.1250 0.0000 -0.0000 -12.6910 32.2543 4.0463 -0.0000 -0.0000 0.0000 86.5240 -6.3795 34.4619 -18.7215 29.0712 -4.8948 0.0000 0.0000 14.8667 -27.3120 -17.2989 8.7299 7.1250 -0.0000 -0.0000 0.6111 -49.2954 -0.0647
0.00 0.00 0.00 -4.1548 11.3432 7.9061 0.0000 0.0000 0.0000 -11.8942 -4.9704 -29.7998 4.7114 13.0512 39.5603 1.1309 -1.4640 -19.6697 1.2358 7.0495 19.8621 0.0000 0.0000 0.0000 16.9061 -0.5830 -21.6237 -5.7216 -14.1530 43.8538 -0.7991 3.5090 -16.0692 -1.3759 7.4228 -20.9742 -2.0808 1.2106 -4.4581 3.9981 1.6862 -2.1862 5.3790 0.8901 0.0651 -3.3497 -3.8943 -9.4344 0.8545 -4.8298 0.8599 0.6213 -2.3987 1.9955 -0.0000 -0.0000 0.0000 -92.9867 11.8961 41.4016 25.9748 -37.1838 -8.8724 -0.0000 0.0000 -9.4570 -2.8006 2.4344 -0.1191 -7.1250 0.0000 -0.0000 -23.1928 31.7533 8.1115 -0.0000 -0.0000 0.0000 79.3190 -11.8619 28.0719 -30.4805 41.3017 -11.7255 0.0000 0.0000 2.4162 -15.6910 -11.4591 3.1943 7.1250 -0.0000 -0.0000 10.2208 -41.6494 0.8547
0.00 0.00 0.00 -3.8756 14.9325 6.6139 0.0000 0.0000 0.0000 -13.1109 -4.5862 -28.3431 4.4595 12.7479 38.4321 1.0100 -4.5632 -18.0169 1.3415 7.3332 20.7063 0.0000 0.0000 0.0000 12.0962 3.8296 -27.1077 -10.0678 -17.4478 59.7149 0.4836 12.8456 0.4774 -0.1745 2.6908 -7.4191 -2.0989 0.4313 -3.0384 3.8743 0.6447 -2.2698 5.1982 0.3824 -0.6999 -3.2624 -4.2565 -9.5896 1.0086 -5.3271 2.1319 0.6146 -2.6490 2.4628 0.0000 0.0000 0.0000 -92.1582 11.9715 42.9255 27.3179 -38.4807 -9.6963 -0.0000 0.0000 -9.6458 -6.4122 5.0340 -0.5650 -7.1250 0.0000 -0.0000 -26.5924 33.9145 7.9798 0.0000 0.0000 0.0000 77.8125 -14.0304 23.6694 -32.3131 42.7954 -12.9531 0.0000 -0.0000 -4.0104 -13.1374 -11.2267 2.6017 7.1250 -0.0000 -0.0000 12.3950 -41.1794 1.1884
0.00 0.00 0.00 -3.6238 18.2344 5.1713 0.0000 0.0000 0.0000 -13.9913 -4.2726 -26.4707 4.1324 12.3345 36.9259 0.8343 -7.0198 -16.3198 1.3739 7.4177 20.9589 0.0000 0.0000 0.0000 7.7169 7.9819 -31.6190 -14.7993 -19.3388 74.6313 0.3284 14.9796 17.2880 -0.2276 -3.0706 8.4753 -2.4620 -0.4246 -1.4884 3.7159 -0.5104 -2.0279 5.2207 -0.1900 -1.1959 -3.1501 -4.5082 -9.6142 1.3045 -5.6946 2.7157 0.6631 -2.8233 2.6803 -0.0000 -0.0000 0.0000 -90.7597 11.8056 44.8859 28.8548 -39.8914 -10.6675 -0.0000 0.0000 -9.9925 -10.2776 8.3173 -1.5025 -7.1250 0.0000 -0.0000 -30.5577 36.5418 7.2152 -0.0000 -0.0000 0.0000 76.3989 -15.6112 21.0311 -33.0434 43.3634 -13.4519 0.0000 -0.0000 -5.4536 -13.6933 -12.1095 2.9260 7.1250 -0.0000 -0.0000 12.1195 -42.1143 0.8770
0.00 0.00 0.00 -3.6946 21.8253 3.3064 0.0000 0.0000 0.0000 -14.4156 -4.1422 -24.1036 3.7796 11.8612 35.2428 0.6124 -9.4106 -14.4777 1.3902 7.4598 21.0849 0.0000 0.0000 0.0000 3.3391 11.3873 -36.7145 -20.4258 -19.9957 91.2450 -1.2638 11.3872 28.1150 -1.1362 -6.7695 19.0344 -2.6998 -1.3414 0.3101 3.5124 -1.7680 -1.5350 5.1722 -0.8220 -1.5604 -2.9715 -4.8046 -9.4185 1.7078 -6.1428 2.9058 0.7390 -3.0312 2.7282 0.0000 -0.0000 0.0000 -88.5810 11.0369 47.8513 30.2717 -41.1251 -11.5879 -0.0000 0.0000 -11.0456 -15.1479 11.5528 -3.1034 -7.1250 0.0000 -0.0000 -35.4556 38.8693 6.3315 0.0000 -0.0000 0.0000 74.8364 -17.3279 19.5652 -32.9557 43.2959 -13.3916 0.0000 -0.0000 -1.6445 -18.6220 -13.1467 4.3826 7.1250 -0.0000 -0.0000 7.9751 -43.6814 0.2613
0.00 0.00 0.00 -4.3533 25.0287 0.9086 0.0000 0.0000 0.0000 -14.1491 -3.8396 -21.6416 3.5205 11.4935 33.9628 0.3798 -11.6664 -12.7978 1.4115 7.5142 21.2480 0.0000 0.0000 0.0000 -0.9673 14.0533 -42.5618 -25.8698 -19.1531 107.3982 -2.2727 4.2749 30.2513 -2.0957 -9.0626 25.9915 -2.3431 -2.1436 2.3795 3.2489 -2.8688 -0.8400 4.7776 -1.3845 -1.9163 -2.7700 -5.1264 -9.2550 2.2632 -6.6377 3.1611 0.8560 -3.2557 2.8127 -0.0000 0.0000 0.0000 -85.9844 9.5416 51.1914 31.1897 -41.8916 -12.1963 -0.0000 0.0000 -12.7097 -20.3582 13.2671 -4.8673 -7.1250 0.0000 -0.0000 -39.9725 39.7084 6.4737 -0.0000 0.0000 0.0000 73.3346 -19.1236 18.6993 -32.1583 42.6730 -12.8480 0.0000 0.0000 8.2249 -24.1062 -14.3154 6.3134 7.1250 -0.0000 -0.0000 3.1732 -45.5748 -0.0451
0.00 0.00 0.00 -5.7285 29.5767 -4.8967 0.0000 0.0000 0.0000 -13.4416 -1.9711 -16.6191 3.2583 11.1019 32.6243 -0.0628 -15.6534 -10.3144 1.4712 7.6647 21.7002 0.0000 0.0000 0.0000 -8.4183 16.1027 -55.0801 -31.1484 -16.7113 124.4245 0.2643 -22.7652 14.0571 -7.1386 -15.4475 49.3967 -2.0428 -3.6304 7.3468 2.6558 -4.9026 1.1746 4.3381 -2.4191 -2.4863 -2.3820 -5.5234 -9.1268 3.3627 -7.2964 3.5989 1.1047 -3.5362 2.9920 -0.0000 0.0000 0.0000 -82.2495 6.0270 55.1625 31.8389 -42.4184 -12.6320 -0.0000 0.0000 -13.0913 -27.7181 14.9762 -7.7322 -7.1250 0.0000 -0.0000 -45.6810 40.0935 7.4358 -0.0000 0.0000 0.0000 70.5785 -21.8944 15.4247 -32.2232 42.7244 -12.8920 0.0000 0.0000 26.2868 -19.3809 -13.6921 4.7599 7.1250 -0.0000 -0.0000 7.4034 -44.3341 0.1224
0.00 0.00 0.00 -6.7025 32.5479 -9.4955 0.0000 0.0000 0.0000 -12.9753 -0.3272 -13.1124 3.1629 10.9541 32.1254 -0.4688 -18.3545 -8.1220 1.7894 8.4130 23.9756 0.0000 0.0000 0.0000 -9.5626 15.9815 -60.8487 -26.9533 -18.7990 110.7294 0.6318 -19.5163 7.5020 -6.7033 -15.0769 47.7432 -2.0514 -5.0760 11.5127 2.1203 -6.8539 3.0140 4.2633 -3.3969 -2.7566 -1.9666 -5.5427 -8.8134 4.1754 -7.4178 3.3325 1.3010 -3.5672 2.8672 -0.0000 0.0000 0.0000 -80.9708 3.6983 56.0447 31.5409 -42.1781 -12.4314 -0.0000 0.0000 -12.0239 -29.4406 16.2207 -8.9595 -7.1250 0.0000 -0.0000 -47.4635 40.8272 6.7223 -0.0000 0.0000 0.0000 69.7258 -22.4205 9.5500 -35.7110 45.3132 -15.3167 0.0000 0.0000 23.0117 -4.0025 -13.9467 0.9662 7.1250 -0.0000 -0.0000 21.0758 -42.9192 1.1369
0.00 0.00 0.00 -3.9294 29.8434 -8.1724 0.0000 0.0000 0.0000 -15.6015 5.5084 -15.1260 3.4215 11.3479 33.4625 -0.0904 -18.0955 -11.8769 0.5446 4.7281 13.1346 0.0000 0.0000 0.0000 4.7301 5.8581 -66.0329 -7.6922 -15.8881 51.4462 1.2505 19.3390 8.0812 -0.2727 3.3592 -9.2805 -3.2175 -5.6865 12.9811 0.4220 -7.8692 3.9511 3.3707 -3.9039 -2.5709 -1.3232 -4.3794 -8.4906 5.2218 -5.9485 2.2161 1.6262 -2.8147 2.4014 -0.0000 0.0000 0.0000 -80.1252 1.8320 57.0638 32.4017 -42.8651 -13.0133 -0.0000 0.0000 -10.0059 -31.4556 18.9451 -11.2332 -7.1250 0.0000 -0.0000 -50.4563 42.6558 4.1407 -0.0000 0.0000 0.0000 72.9173 -16.6587 -11.9734 -46.1538 51.3214 -23.1360 0.0000 -0.0000 -8.8696 5.4638 -19.6831 -1.8452 7.1250 -0.0000 -0.0000 31.7152 -46.9354 -1.6802
0.00 0.00 0.00 0.5828 24.9543 -6.9643 0.0000 0.0000 0.0000 -19.0804 8.1836 -15.4657 3.8538 11.9632 35.6020 0.5908 -13.6865 -15.6323 0.0975 2.0137 5.5436 0.0000 0.0000 0.0000 34.1725 -5.1036 -84.9780 -10.4355 -17.6476 60.9341 0.3928 11.4308 0.9912 -2.8135 10.3868 -30.2386 -8.3067 -4.2569 15.0944 -0.8406 -6.8223 4.5018 4.8817 -3.3820 -2.7447 -1.1415 -3.6344 -8.8019 5.7316 -4.9242 0.7292 1.8119 -2.3092 1.9411 -0.0000 -0.0000 0.0000 -78.1358 2.9175 61.1605 37.0398 -46.2150 -16.2688 -0.0000 0.0000 -12.8041 -37.7675 21.7031 -15.9874 -7.1250 0.0000 -0.0000 -55.8726 43.6716 2.8448 -0.0000 -0.0000 0.0000 76.3085 -9.6068 -22.8905 -59.4808 56.1700 -33.9094 0.0000 -0.0000 -37.5914 -31.0545 -22.1657 12.7995 7.1250 -0.0000 -0.0000 -2.3720 -55.3976 0.6057
0.00 0.00 0.00 2.2826 23.9492 -7.3338 0.0000 0.0000 0.0000 -20.3186 9.9049 -15.6613 4.1287 12.3297 36.9087 0.7954 -12.3059 -16.9319 0.0100 0.6442 1.7703 0.0000 0.0000 0.0000 29.9497 -2.6029 -87.5705 -16.7594 -19.7463 80.4864 0.7647 15.7369 9.9847 -1.9538 8.7692 -25.0760 -8.8676 -4.4095 16.5096 -1.8487 -7.2468 5.0101 4.3017 -3.5801 -2.9609 -0.8292 -3.2033 -8.9261 5.1833 -4.3348 0.1299 1.6055 -2.0371 1.7171 -0.0000 -0.0000 0.0000 -76.5731 3.3254 63.8062 38.8833 -47.3942 -17.6129 -0.0000 0.0000 -17.6026 -40.6234 21.4470 -17.4141 -7.1250 0.0000 -0.0000 -56.8458 42.9160 4.7185 -0.0000 -0.0000 0.0000 78.7192 -5.4737 -21.4149 -70.0968 58.4490 -42.8530 0.0000 -0.0000 -34.9918 -62.9986 -32.1031 46.2045 7.1250 -0.0000 -0.0000 -72.1444 -74.1051 55.8168
0.00 0.00 0.00 1.5555 24.5922 -6.7306 0.0000 0.0000 0.0000 -19.2696 10.5686 -18.2907 4.5711 12.8839 38.9353 1.0125 -10.0732 -18.2597 0.0304 -1.1251 -3.0931 0.0000 0.0000 0.0000 24.5666 -1.0521 -88.5873 -22.9291 -19.7930 98.5924 2.2293 26.6130 19.4486 -1.5767 7.9224 -22.4785 -7.4444 -5.1233 16.1135 -1.9060 -7.9379 4.8552 3.5473 -3.9122 -3.0376 -0.5917 -3.2208 -8.9399 4.9682 -4.3825 0.2620 1.4917 -2.0634 1.7502 -0.0000 0.0000 0.0000 -76.3452 2.7467 66.9878 37.8651 -46.7529 -16.8673 -0.0000 0.0000 -22.3718 -43.6130 22.4073 -19.9593 -7.1250 0.0000 -0.0000 -58.7620 43.0512 4.7722 -0.0000 0.0000 0.0000 82.0423 -5.4058 -12.9463 -84.7586 59.8959 -55.4624 0.0000 -0.0000 -27.1927 -79.2788 -37.4909 72.7201 7.1250 -0.0000 -0.0000 -125.8077 69.4303 -144.9092
0.00 0.00 0.00 1.3354 25.8054 -4.4328 0.0000 0.0000 0.0000 -18.6951 12.1083 -22.0196 4.7787 13.1301 39.8576 1.1222 -2.2516 -19.4003 0.2492 -3.2122 -8.8702 0.0000 0.0000 0.0000 19.0423 -3.5425 -86.4381 -28.5566 -18.1453 115.7868 1.5992 22.9892 17.0583 -1.5247 7.7966 -22.0979 -6.6226 -5.5146 14.4611 -2.0079 -8.2453 4.2367 2.9040 -4.0602 -2.9153 -0.0404 -3.5906 -8.9227 5.3761 -4.9444 0.2127 1.5021 -2.3325 1.7441 0.0000 -0.0000 0.0000 -76.2343 1.1257 72.2320 36.3536 -45.7549 -15.7753 -0.0000 0.0000 -22.8384 -47.0544 22.2666 -22.1519 -7.1250 0.0000 -0.0000 -59.4333 42.1399 7.4098 0.0000 -0.0000 0.0000 86.3022 -10.9864 6.7105 -105.1761 59.1116 -73.1037 0.0000 -0.0000 -11.7144 -55.6332 -32.1031 37.8516 7.1250 -0.0000 -0.0000 -47.1725 -73.4614 33.6378
0.00 0.00 0.00 0.8159 29.3770 3.1260 0.0000 0.0000 0.0000 -18.7836 19.4886 -33.4421 4.7734 13.1239 39.8342 0.6652 4.6142 -17.7709 0.0406 -1.3010 -3.5773 0.0000 0.0000 0.0000 -0.3637 -13.7678 -55.2901 -24.5340 -19.4998 103.3635 1.1704 -23.9553 7.2037 -5.9678 -14.3971 44.8524 -3.4049 -5.5379 6.6942 -1.1742 -7.5916 2.0390 1.2464 -3.7794 -1.3402 -1.8625 -5.7463 -8.9299 5.9308 -7.6388 -0.0296 1.8697 -3.6703 1.8563 0.0000 0.0000 0.0000 -81.2313 -1.5488 82.1851 31.6866 -42.2959 -12.5294 -0.0000 0.0000 -18.0428 -47.9108 21.1895 -21.8103 -7.1250 0.0000 -0.0000 -58.4051 40.9665 10.3073 0.0000 0.0000 0.0000 92.2795 -15.3589 27.3693 -110.6274 58.3296 -77.7637 0.0000 -0.0000 -19.0219 0.9763 -11.1383 -0.1886 7.1250 -0.0000 -0.0000 24.2739 -39.8539 3.3070
0.00 0.00 0.00 1.4879 27.6765 4.2564 0.0000 0.0000 0.0000 -18.3863 18.9531 -34.1423 4.9660 13.3454 40.6755 0.6538 5.0274 -17.9247 0.0018 0.2717 0.7466 0.0000 0.0000 0.0000 -4.0323 -10.2113 -45.7836 -19.4254 -19.9921 88.3197 1.2398 -22.8730 4.7872 -4.8789 -13.2461 40.2969 -3.3508 -4.9849 5.9304 -1.1543 -6.8449 1.4657 1.1490 -3.4006 -1.5451 -2.9100 -5.8579 -8.5582 5.8627 -7.6807 -0.1081 2.0387 -3.7027 1.8132 -0.0000 -0.0000 0.0000 -83.0183 0.2452 79.6253 30.3877 -41.2234 -11.6643 -0.0000 0.0000 -15.8517 -47.3799 19.9880 -20.3785 -7.1250 0.0000 -0.0000 -57.1134 40.0256 12.2590 -0.0000 -0.0000 0.0000 91.4524 -15.0906 28.0082 -100.8933 59.5468 -69.4195 0.0000 -0.0000 -6.3506 -38.2159 -24.2073 17.8929 7.1250 -0.0000 -0.0000 -10.4851 -59.4513 3.7257
